
<svg version="1.1" id="Layer_1" xmlns="http://www.w3.org/2000/svg" xmlns:xlink="http://www.w3.org/1999/xlink" x="0px" y="0px"
	 width="98.347px" height="73.469px" viewBox="0 0 98.347 73.469" enable-background="new 0 0 98.347 73.469" xml:space="preserve">

<g id="stem">
	<path fill="#8CC152" d="M49.829,15.222c-0.021-0.101-0.117-0.256,0.156-0.991c1.412-3.816,7.188-15.526,24.476-14.114
	c0.365,0.03,0.796,0.064,0.901,0.221c0.138,0.205-0.234,0.831-0.234,0.831c-1.315,3.467-7.378,14.717-24.489,14.185
	C50.297,15.344,49.85,15.322,49.829,15.222z"/>
	<path fill="#933624" d="M49.638,23.137c-0.12,0-0.242-0.011-0.364-0.033c-1.085-0.2-1.803-1.239-1.607-2.323
		c0.01-0.059,0.358-2.129-0.138-4.327c-0.603-2.667-2.124-4.282-4.652-4.936c-1.069-0.276-1.712-1.368-1.435-2.437
		c0.276-1.069,1.369-1.712,2.437-1.435c7.754,2.006,8.442,9.938,7.723,13.852C51.426,22.462,50.584,23.137,49.638,23.137z"/>
</g>

<path id="fruit" fill="#ED5565" d="M79.485,24.532c0.034,0.5,0.061,1.105,0.061,1.778c0,15.948-13.625,28.923-30.373,28.923
	c-16.747,0-30.371-12.975-30.371-28.923c0-0.673,0.027-1.279,0.061-1.778H79.485 M81.003,19.532H17.344
	c-1.559,0-3.035,1.26-3.279,2.799c0,0-0.263,1.657-0.263,3.979c0,18.734,15.836,33.923,35.371,33.923S84.546,45.044,84.546,26.31
	c0-2.321-0.264-3.979-0.264-3.979C84.038,20.792,82.562,19.532,81.003,19.532L81.003,19.532z"/>
<path id="bowl" fill="#933624" d="M98.156,22.348c-0.177-1.549-1.429-2.816-2.781-2.816c-1.354,0-2.33,1.269-2.171,2.82
	c0,0,0.07,0.691,0.103,2.18c0.026,0.596,0.04,1.189,0.04,1.778c0,23.247-19.815,42.159-44.173,42.159S5,49.557,5,26.31
	c0-0.589,0.014-1.182,0.041-1.778c0.032-1.489,0.103-2.18,0.103-2.18c0.159-1.551-0.818-2.82-2.171-2.82s-2.605,1.267-2.783,2.816
	c0,0-0.19,1.66-0.19,3.962c0,26.045,22.017,47.159,49.174,47.159S98.347,52.354,98.347,26.31
	C98.347,24.007,98.156,22.348,98.156,22.348z"/>



</svg>
